<svg xmlns="http://www.w3.org/2000/svg" width="10.849" height="6.485" viewBox="0 0 10.849 6.485">
  <g id="angle-down" transform="translate(-9.553 -12.716)" fill="#282828">
    <path d="M 14.96661949157715 18.98849105834961 L 14.8605489730835 18.88243103027344 L 14.23456954956055 18.25645065307617 L 12.37237930297852 16.39426231384277 L 9.870929718017578 13.89281177520752 L 9.764869689941406 13.78674125671387 L 9.870929718017578 13.68067169189453 L 10.49691963195801 13.0546817779541 L 10.60298919677734 12.94862174987793 L 10.709059715271 13.0546817779541 L 14.96661949157715 17.31225204467773 L 19.24493980407715 13.03393173217773 L 19.35100936889648 12.92787170410156 L 19.45707893371582 13.03393173217773 L 20.08306884765625 13.65991115570068 L 20.18912887573242 13.76598167419434 L 20.08306884765625 13.87205123901367 L 15.07268905639648 18.88243103027344 L 14.96661949157715 18.98849105834961 Z" stroke="none"/>
    <path d="M 14.96661949157715 18.7763614654541 L 19.97699928283691 13.76598167419434 L 19.35100936889648 13.14000129699707 L 14.96661949157715 17.52439117431641 L 10.60298919677734 13.16075134277344 L 9.976999282836914 13.78674125671387 L 14.96661949157715 18.7763614654541 M 14.96661949157715 19.20062065124512 L 9.552739143371582 13.78674125671387 L 10.60298919677734 12.73649120330811 L 14.96661949157715 17.10013198852539 L 19.35100936889648 12.71574115753174 L 20.40126991271973 13.76598167419434 L 14.96661949157715 19.20062065124512 Z" stroke="none" fill="#282828"/>
  </g>
</svg>
