<svg xmlns="http://www.w3.org/2000/svg" width="18.559" height="23" viewBox="0 0 18.559 23">
  <path id="Cart" d="M17.24,5.121a.735.735,0,0,0-.733-.674H13.912A4.648,4.648,0,0,0,9.286.125c-.072,0-.145,0-.217.005A4.616,4.616,0,0,0,4.655,4.447H2.048a.739.739,0,0,0-.734.674L0,19.906v.064a3.383,3.383,0,0,0,3.362,3.156c.061,0,.123,0,.186-.005H15c.064,0,.125.005.188.005a3.379,3.379,0,0,0,3.364-3.145.246.246,0,0,0,0-.084ZM5.379,8.485a.742.742,0,0,0,.741-.74V5.933h6.312V7.745a.741.741,0,0,0,1.481,0V5.933h1.911l1.252,14.044a1.915,1.915,0,0,1-2.056,1.663H3.539A1.907,1.907,0,0,1,1.481,20L2.727,5.933H4.639V7.745A.741.741,0,0,0,5.379,8.485Zm.75-4.038A3.178,3.178,0,0,1,9.279,1.471a3.139,3.139,0,0,1,3.15,2.976Z" transform="translate(0 -0.125)" fill="#282828"/>
</svg>
