<svg xmlns="http://www.w3.org/2000/svg" width="15" height="11.677" viewBox="0 0 15 11.677">
  <g id="fi-rr-eye" transform="translate(0.004 -2.655)">
    <path id="Path_1654" data-name="Path 1654" d="M14.537,6.881A8.274,8.274,0,0,0,7.5,2.655,8.274,8.274,0,0,0,.454,6.881a3.066,3.066,0,0,0,0,3.225A8.274,8.274,0,0,0,7.5,14.332a8.274,8.274,0,0,0,7.042-4.226A3.066,3.066,0,0,0,14.537,6.881ZM13.472,9.452A7.069,7.069,0,0,1,7.5,13.082,7.069,7.069,0,0,1,1.519,9.452a1.823,1.823,0,0,1,0-1.917A7.069,7.069,0,0,1,7.5,3.9a7.063,7.063,0,0,1,5.977,3.631A1.823,1.823,0,0,1,13.472,9.452Z" transform="translate(0 0)" fill="#282828"/>
    <path id="Path_1655" data-name="Path 1655" d="M10.125,7a3.123,3.123,0,1,0,3.125,3.123A3.124,3.124,0,0,0,10.125,7Zm0,5A1.874,1.874,0,1,1,12,10.123,1.874,1.874,0,0,1,10.125,12Z" transform="translate(-2.629 -1.629)" fill="#282828"/>
  </g>
</svg>
