<svg xmlns="http://www.w3.org/2000/svg" width="138.603" height="50" viewBox="0 0 138.603 50">
  <g id="Logo" transform="translate(-196.298 -431.405)">
    <g id="Group_1" data-name="Group 1" transform="translate(237.375 472.001)">
      <path id="Path_1" data-name="Path 1" d="M413.3,648.753v2.125h2.317v.684H413.3v2.189h2.59v.684h-3.42v-6.366h3.42v.684Z" transform="translate(-412.469 -647.494)" fill="#a4b0be"/>
      <path id="Path_2" data-name="Path 2" d="M446.026,659.5l1.551-4.232h.885l-1.961,5h-.967l-1.961-5h.894Z" transform="translate(-437.663 -653.327)" fill="#a4b0be"/>
      <path id="Path_3" data-name="Path 3" d="M486.431,657.729h-4a1.571,1.571,0,0,0,1.624,1.569,1.534,1.534,0,0,0,.9-.251,1.327,1.327,0,0,0,.506-.67h.894a2.148,2.148,0,0,1-.8,1.172,2.423,2.423,0,0,1-1.5.451,2.528,2.528,0,0,1-1.272-.319,2.26,2.26,0,0,1-.88-.908,2.812,2.812,0,0,1-.319-1.364,2.854,2.854,0,0,1,.31-1.359,2.178,2.178,0,0,1,.871-.9,2.6,2.6,0,0,1,1.291-.315,2.509,2.509,0,0,1,1.259.31,2.149,2.149,0,0,1,.844.853,2.52,2.52,0,0,1,.3,1.227A4.893,4.893,0,0,1,486.431,657.729Zm-1.04-1.492a1.363,1.363,0,0,0-.57-.52,1.778,1.778,0,0,0-.8-.178,1.537,1.537,0,0,0-1.072.4,1.633,1.633,0,0,0-.506,1.113H485.6A1.532,1.532,0,0,0,485.391,656.237Z" transform="translate(-468.454 -652.976)" fill="#a4b0be"/>
      <path id="Path_4" data-name="Path 4" d="M524.035,655.026a1.93,1.93,0,0,1,.99-.237v.857h-.219q-1.4,0-1.4,1.514v2.718h-.83v-5h.83v.812A1.593,1.593,0,0,1,524.035,655.026Z" transform="translate(-501.657 -652.937)" fill="#a4b0be"/>
      <path id="Path_5" data-name="Path 5" d="M551.861,655.27l-3.01,7.351h-.857l.985-2.408-2.016-4.943h.921l1.569,4.049L551,655.27Z" transform="translate(-521.406 -653.327)" fill="#a4b0be"/>
      <path id="Path_6" data-name="Path 6" d="M585.385,648.941a2.25,2.25,0,0,1,.853-.9,2.355,2.355,0,0,1,1.218-.319,2.263,2.263,0,0,1,1.085.269,1.944,1.944,0,0,1,.766.707v-2.645h.839V652.8h-.839v-.939a1.945,1.945,0,0,1-.73.734,2.173,2.173,0,0,1-1.131.287,2.274,2.274,0,0,1-2.061-1.249,2.868,2.868,0,0,1-.31-1.35A2.807,2.807,0,0,1,585.385,648.941Zm3.694.369a1.61,1.61,0,0,0-.615-.643,1.745,1.745,0,0,0-1.7,0,1.588,1.588,0,0,0-.611.639,2.031,2.031,0,0,0-.228.985,2.078,2.078,0,0,0,.228,1,1.612,1.612,0,0,0,.611.648,1.653,1.653,0,0,0,.848.224,1.678,1.678,0,0,0,.853-.224,1.6,1.6,0,0,0,.615-.648,2.058,2.058,0,0,0,.228-.99A2.032,2.032,0,0,0,589.079,649.31Z" transform="translate(-552.276 -645.862)" fill="#a4b0be"/>
      <path id="Path_7" data-name="Path 7" d="M627.433,656.055a2.249,2.249,0,0,1,.853-.9,2.338,2.338,0,0,1,1.209-.319,2.222,2.222,0,0,1,1.14.283,1.884,1.884,0,0,1,.721.711v-.912h.839v5h-.839v-.93a1.958,1.958,0,0,1-.734.725,2.2,2.2,0,0,1-1.135.287,2.264,2.264,0,0,1-1.2-.328,2.3,2.3,0,0,1-.848-.921,2.867,2.867,0,0,1-.31-1.35A2.805,2.805,0,0,1,627.433,656.055Zm3.694.369a1.61,1.61,0,0,0-.615-.643,1.745,1.745,0,0,0-1.7,0,1.587,1.587,0,0,0-.611.639,2.03,2.03,0,0,0-.228.985,2.079,2.079,0,0,0,.228,1,1.613,1.613,0,0,0,.611.648,1.653,1.653,0,0,0,.848.223,1.678,1.678,0,0,0,.853-.223,1.6,1.6,0,0,0,.615-.648,2.058,2.058,0,0,0,.228-.99A2.032,2.032,0,0,0,631.127,656.424Z" transform="translate(-586.334 -652.976)" fill="#a4b0be"/>
      <path id="Path_8" data-name="Path 8" d="M672.581,655.27l-3.01,7.351h-.857l.985-2.408-2.016-4.943h.921l1.569,4.049,1.551-4.049Z" transform="translate(-619.187 -653.327)" fill="#a4b0be"/>
      <path id="Path_9" data-name="Path 9" d="M730.672,646.054V652.8h-.83v-6.749Z" transform="translate(-669.534 -645.862)" fill="#a4b0be"/>
      <path id="Path_10" data-name="Path 10" d="M750.692,646.012a.565.565,0,0,1,.4-.967.521.521,0,0,1,.388.164.584.584,0,0,1,0,.8.521.521,0,0,1-.388.164A.546.546,0,0,1,750.692,646.012Zm.8.976v5h-.83v-5Z" transform="translate(-686.289 -645.045)" fill="#a4b0be"/>
      <path id="Path_11" data-name="Path 11" d="M771.99,659.5l1.551-4.232h.885l-1.961,5H771.5l-1.961-5h.894Z" transform="translate(-701.685 -653.327)" fill="#a4b0be"/>
      <path id="Path_12" data-name="Path 12" d="M808.628,646.012a.565.565,0,0,1,.4-.967.521.521,0,0,1,.388.164.584.584,0,0,1,0,.8.521.521,0,0,1-.388.164A.546.546,0,0,1,808.628,646.012Zm.8.976v5h-.83v-5Z" transform="translate(-733.216 -645.045)" fill="#a4b0be"/>
      <path id="Path_13" data-name="Path 13" d="M834.5,655.341a2.125,2.125,0,0,1,.565,1.592v2.946h-.821v-2.828a1.606,1.606,0,0,0-.374-1.145,1.336,1.336,0,0,0-1.021-.4,1.368,1.368,0,0,0-1.044.41,1.677,1.677,0,0,0-.387,1.195v2.764h-.83v-5h.83v.711a1.644,1.644,0,0,1,.67-.593,2.078,2.078,0,0,1,.935-.21A2.028,2.028,0,0,1,834.5,655.341Z" transform="translate(-751.139 -652.937)" fill="#a4b0be"/>
      <path id="Path_14" data-name="Path 14" d="M872.786,655.12a1.877,1.877,0,0,1,.725.711v-.912h.839v5.108a2.5,2.5,0,0,1-.292,1.218,2.081,2.081,0,0,1-.835.834,2.564,2.564,0,0,1-1.263.3,2.769,2.769,0,0,1-1.642-.465,1.817,1.817,0,0,1-.775-1.268h.821a1.3,1.3,0,0,0,.565.734,1.852,1.852,0,0,0,1.031.278,1.521,1.521,0,0,0,1.117-.429,1.619,1.619,0,0,0,.433-1.2v-1.049a2,2,0,0,1-.73.73,2.145,2.145,0,0,1-1.131.292,2.274,2.274,0,0,1-2.061-1.249,2.869,2.869,0,0,1-.31-1.35,2.807,2.807,0,0,1,.31-1.345,2.25,2.25,0,0,1,.853-.9,2.339,2.339,0,0,1,1.209-.319A2.227,2.227,0,0,1,872.786,655.12Zm.5,1.3a1.611,1.611,0,0,0-.616-.643,1.745,1.745,0,0,0-1.7,0,1.587,1.587,0,0,0-.611.639,2.032,2.032,0,0,0-.228.985,2.08,2.08,0,0,0,.228,1,1.613,1.613,0,0,0,.611.648,1.654,1.654,0,0,0,.848.223,1.678,1.678,0,0,0,.853-.223,1.6,1.6,0,0,0,.616-.648,2.061,2.061,0,0,0,.228-.99A2.035,2.035,0,0,0,873.283,656.424Z" transform="translate(-782.475 -652.976)" fill="#a4b0be"/>
    </g>
    <g id="Group_2" data-name="Group 2" transform="translate(196.298 431.405)">
      <path id="Path_15" data-name="Path 15" d="M210.912,433.493h-3.654v12.589H218.22v2.348H207.258v17.424H213v2.088H196.3v-2.088h3.132V433.493H196.3V431.4h22.391a13.126,13.126,0,0,1,1.7.078,1.741,1.741,0,0,1,1.017.574,2.173,2.173,0,0,1,.47,1.539l-1.409,8.769h-2.036l-1.044-5.168a4.09,4.09,0,0,0-1.748-3.026A11.223,11.223,0,0,0,210.912,433.493Z" transform="translate(-196.298 -431.405)" fill="#282828"/>
      <path id="Path_16" data-name="Path 16" d="M314.6,523.84v14.543a2.392,2.392,0,0,0,.486,1.589,1.839,1.839,0,0,0,1.5.58,3.858,3.858,0,0,0,2.318-1.084l.673.9a8.957,8.957,0,0,1-5.982,2.729,4.048,4.048,0,0,1-4.374-3.327,6.24,6.24,0,0,1-5.72,3.327,7.9,7.9,0,0,1-6.542-2.786,10.966,10.966,0,0,1-2.243-7.1,10.534,10.534,0,0,1,2.412-7.122,8.421,8.421,0,0,1,6.748-2.8,5.818,5.818,0,0,1,5.122,2.654V523.84ZM301.548,527.5a15.942,15.942,0,0,0,0,11.365,3.391,3.391,0,0,0,3.2,2.094,3.577,3.577,0,0,0,3.29-2.112,14.634,14.634,0,0,0,0-11.328,3.577,3.577,0,0,0-3.29-2.112A3.39,3.39,0,0,0,301.548,527.5Z" transform="translate(-276.006 -505.822)" fill="#282828"/>
      <path id="Path_17" data-name="Path 17" d="M420.554,520.054a4.687,4.687,0,0,1-.9-2.467,2.648,2.648,0,0,1,.841-1.925,2.888,2.888,0,0,1,4.075,0,2.73,2.73,0,0,1,.841,2,3.849,3.849,0,0,1-1.159,2.467,23.015,23.015,0,0,1,4.71,4.393,7.956,7.956,0,0,1,1.645,4.972,6.261,6.261,0,0,1-2.131,4.786,8.616,8.616,0,0,1-6.057,1.963,9.024,9.024,0,0,1-3.608-.785,7.028,7.028,0,0,1-2.748-1.945l.859-.9a5.594,5.594,0,0,0,3.552,1.309A4.665,4.665,0,0,0,423.6,532.9a3.959,3.959,0,0,0,1.215-3.2,12.847,12.847,0,0,0-2.543-7.178l-5.645,7.066-.935-.823Q418.535,524.166,420.554,520.054Z" transform="translate(-374.004 -498.969)" fill="#282828"/>
      <path id="Path_18" data-name="Path 18" d="M493.245,476.373v9.608A7.336,7.336,0,0,1,496.067,484a11.242,11.242,0,0,1,3.851-.56,5.163,5.163,0,0,1,3.814,1.477,5.431,5.431,0,0,1,1.477,4.019v9.608a2.4,2.4,0,0,0,.485,1.589,1.841,1.841,0,0,0,1.5.58,3.859,3.859,0,0,0,2.318-1.084l.673.9a8.954,8.954,0,0,1-5.982,2.729q-4.6,0-4.6-5.5V488.15a2.285,2.285,0,0,0-.71-1.795,2.87,2.87,0,0,0-1.981-.636,3.727,3.727,0,0,0-2.467,1.047,3.453,3.453,0,0,0-1.2,2.729v13.2h-5.608V475.888a5.787,5.787,0,0,0-3.141,1.831l-1.01-1.159a7.853,7.853,0,0,1,2.748-1.795,8.724,8.724,0,0,1,3.29-.673,4.975,4.975,0,0,1,2.673.654A1.9,1.9,0,0,1,493.245,476.373Z" transform="translate(-428.915 -465.981)" fill="#282828"/>
      <path id="Path_19" data-name="Path 19" d="M615.5,485.831q3.514,0,3.514,3.028v12.076a2.4,2.4,0,0,0,.486,1.589,1.841,1.841,0,0,0,1.5.58,3.859,3.859,0,0,0,2.318-1.084l.673.9a8.954,8.954,0,0,1-5.982,2.729q-4.6,0-4.6-5.5V487.626a5.788,5.788,0,0,0-3.14,1.831l-1.009-1.159a7.847,7.847,0,0,1,2.747-1.794A9.234,9.234,0,0,1,615.5,485.831Zm-1.4-3.683a2.978,2.978,0,1,1,2.112.879A2.879,2.879,0,0,1,614.1,482.149Z" transform="translate(-530.787 -468.373)" fill="#282828"/>
      <path id="Path_20" data-name="Path 20" d="M687.044,540.234a10.411,10.411,0,0,1,0-14.095,10.392,10.392,0,0,1,14.319,0,10.411,10.411,0,0,1,0,14.095,10.39,10.39,0,0,1-14.319,0Zm4.094-13.047a17.715,17.715,0,0,0,0,12,3.229,3.229,0,0,0,6.206,0,17.715,17.715,0,0,0,0-12,3.228,3.228,0,0,0-6.206,0Z" transform="translate(-591.566 -505.822)" fill="#282828"/>
      <path id="Path_21" data-name="Path 21" d="M792.084,523.84a8.936,8.936,0,0,1,5.534,1.87,8.5,8.5,0,0,1,2.916-1.888,11.427,11.427,0,0,1,3.832-.542,5.161,5.161,0,0,1,3.813,1.477,5.429,5.429,0,0,1,1.477,4.019v9.608a2.4,2.4,0,0,0,.486,1.589,1.84,1.84,0,0,0,1.5.58,3.861,3.861,0,0,0,2.318-1.084l.672.9a8.955,8.955,0,0,1-5.981,2.729q-4.6,0-4.6-5.5V527.99a2.286,2.286,0,0,0-.71-1.795,2.843,2.843,0,0,0-1.963-.636,3.847,3.847,0,0,0-2.467,1.01,3.243,3.243,0,0,0-1.215,2.617v13.346h-5.608v-17.2a7.538,7.538,0,0,0-2.99.56l-.524-1.383A9.013,9.013,0,0,1,792.084,523.84Z" transform="translate(-676.025 -505.822)" fill="#282828"/>
    </g>
    <rect id="Rectangle_1" data-name="Rectangle 1" width="32.122" height="3.481" transform="translate(196.298 474.114)" fill="#282828"/>
  </g>
</svg>
